<svg width="20" height="19" viewBox="0 0 20 19" fill="currentColor" xmlns="http://www.w3.org/2000/svg">
<g id="Calender ICON">
<path id="Vector" fill-rule="evenodd" clip-rule="evenodd" d="M17.2727 1.81818H16.3636V0.909091C16.3636 0.667985 16.2679 0.436754 16.0974 0.266266C15.9269 0.0957789 15.6957 0 15.4545 0C15.2134 0 14.9822 0.0957789 14.8117 0.266266C14.6412 0.436754 14.5455 0.667985 14.5455 0.909091V1.81818H5.45455V0.909091C5.45455 0.667985 5.35877 0.436754 5.18828 0.266266C5.01779 0.0957789 4.78656 0 4.54545 0C4.30435 0 4.07312 0.0957789 3.90263 0.266266C3.73214 0.436754 3.63636 0.667985 3.63636 0.909091V1.81818H2.72727C2.00396 1.81818 1.31026 2.10552 0.7988 2.61698C0.287337 3.12844 0 3.82214 0 4.54545V15.4545C0 16.1779 0.287337 16.8716 0.7988 17.383C1.31026 17.8945 2.00396 18.1818 2.72727 18.1818H17.2727C17.996 18.1818 18.6897 17.8945 19.2012 17.383C19.7127 16.8716 20 16.1779 20 15.4545V4.54545C20 3.82214 19.7127 3.12844 19.2012 2.61698C18.6897 2.10552 17.996 1.81818 17.2727 1.81818ZM1.81818 4.54545C1.81818 4.30435 1.91396 4.07312 2.08445 3.90263C2.25494 3.73214 2.48617 3.63636 2.72727 3.63636H17.2727C17.5138 3.63636 17.7451 3.73214 17.9156 3.90263C18.086 4.07312 18.1818 4.30435 18.1818 4.54545V5.45455H1.81818V4.54545ZM18.1818 15.4545C18.1818 15.6957 18.086 15.9269 17.9156 16.0974C17.7451 16.2679 17.5138 16.3636 17.2727 16.3636H2.72727C2.48617 16.3636 2.25494 16.2679 2.08445 16.0974C1.91396 15.9269 1.81818 15.6957 1.81818 15.4545V7.27273H18.1818V15.4545Z" fill="#757575"/>
<path id="Vector_2" d="M5.63635 9.09091H4.36363C3.96196 9.09091 3.63635 9.41652 3.63635 9.81818V11.0909C3.63635 11.4926 3.96196 11.8182 4.36363 11.8182H5.63635C6.03801 11.8182 6.36363 11.4926 6.36363 11.0909V9.81818C6.36363 9.41652 6.03801 9.09091 5.63635 9.09091Z" fill="#757575"/>
<path id="Vector_3" d="M10.1818 9.09091H8.9091C8.50743 9.09091 8.18182 9.41652 8.18182 9.81818V11.0909C8.18182 11.4926 8.50743 11.8182 8.9091 11.8182H10.1818C10.5835 11.8182 10.9091 11.4926 10.9091 11.0909V9.81818C10.9091 9.41652 10.5835 9.09091 10.1818 9.09091Z" fill="#757575"/>
</g>
</svg>
