<svg width="20" height="20" viewBox="0 0 20 20" fill="none" xmlns="http://www.w3.org/2000/svg">
<g id="Settings ICON">
<path id="Vector" fill-rule="evenodd" clip-rule="evenodd" d="M9.95015 6.33189C9.23453 6.33189 8.53498 6.5441 7.93996 6.94168C7.34495 7.33925 6.88119 7.90434 6.60733 8.56549C6.33348 9.22664 6.26182 9.95414 6.40143 10.656C6.54104 11.3579 6.88565 12.0026 7.39167 12.5086C7.89769 13.0146 8.5424 13.3592 9.24427 13.4988C9.94613 13.6385 10.6736 13.5668 11.3348 13.2929C11.9959 13.0191 12.561 12.5553 12.9586 11.9603C13.3562 11.3653 13.5684 10.6658 13.5684 9.95013C13.5684 8.99051 13.1872 8.0702 12.5086 7.39165C11.8301 6.7131 10.9098 6.33189 9.95015 6.33189ZM9.95015 11.7592C9.59234 11.7592 9.24256 11.6531 8.94506 11.4544C8.64755 11.2556 8.41567 10.973 8.27874 10.6424C8.14181 10.3119 8.10599 9.94812 8.17579 9.59719C8.2456 9.24625 8.4179 8.9239 8.67091 8.67089C8.92392 8.41788 9.24627 8.24558 9.59721 8.17577C9.94814 8.10597 10.3119 8.1418 10.6425 8.27872C10.973 8.41565 11.2556 8.64753 11.4544 8.94504C11.6532 9.24255 11.7593 9.59232 11.7593 9.95013C11.7593 10.4299 11.5687 10.8901 11.2294 11.2294C10.8901 11.5686 10.43 11.7592 9.95015 11.7592Z" fill="#757575"/>
<path id="Vector_2" fill-rule="evenodd" clip-rule="evenodd" d="M17.5394 6.81131C17.9406 6.2887 18.138 5.63796 18.0947 4.98051C18.0515 4.32306 17.7705 3.70381 17.3042 3.2383L16.662 2.59606C16.194 2.11758 15.5657 1.8289 14.8979 1.78549C14.23 1.74208 13.5697 1.947 13.0437 2.36088C12.9593 1.71619 12.6462 1.12325 12.1615 0.689953C11.6767 0.256656 11.0525 0.0118105 10.4024 -2.43721e-05H9.49785C8.83528 -0.00564398 8.19355 0.23134 7.69367 0.66624C7.19378 1.10114 6.87028 1.70391 6.78417 2.36088C6.26156 1.95964 5.61082 1.76224 4.95337 1.80552C4.29592 1.84879 3.67667 2.12978 3.21116 2.59606L2.56892 3.2383C2.10265 3.70381 1.82165 4.32306 1.77838 4.98051C1.7351 5.63796 1.9325 6.2887 2.33374 6.81131C1.68635 6.90284 1.09378 7.22503 0.665006 7.71863C0.236229 8.21222 7.46855e-05 8.84402 -2.43721e-05 9.49785V10.4024C-0.00564399 11.065 0.23134 11.7067 0.66624 12.2066C1.10114 12.7065 1.70391 13.03 2.36088 13.1161C1.947 13.642 1.74208 14.3024 1.78549 14.9702C1.8289 15.6381 2.11758 16.2664 2.59606 16.7343L3.2383 17.3766C3.70381 17.8428 4.32306 18.1238 4.98051 18.1671C5.63796 18.2104 6.2887 18.013 6.81131 17.6117C6.89742 18.2687 7.22092 18.8715 7.7208 19.3064C8.22069 19.7413 8.86242 19.9783 9.52498 19.9726H10.4295C11.0921 19.9783 11.7338 19.7413 12.2337 19.3064C12.7336 18.8715 13.0571 18.2687 13.1432 17.6117C13.6692 18.0256 14.3295 18.2305 14.9974 18.1871C15.6652 18.1437 16.2935 17.855 16.7615 17.3766L17.4037 16.7343C17.8822 16.2664 18.1709 15.6381 18.2143 14.9702C18.2577 14.3024 18.0528 13.642 17.6389 13.1161C18.2959 13.03 18.8986 12.7065 19.3335 12.2066C19.7684 11.7067 20.0054 11.065 19.9998 10.4024V9.49785C19.996 8.82462 19.7421 8.17684 19.2874 7.68036C18.8327 7.18387 18.2097 6.87413 17.5394 6.81131ZM18.0912 10.4295C18.0912 10.6694 17.9959 10.8995 17.8262 11.0692C17.6566 11.2388 17.4265 11.3341 17.1866 11.3341C16.8609 11.3322 16.542 11.4276 16.2707 11.6079C15.9995 11.7882 15.7882 12.0454 15.6639 12.3465C15.5396 12.6475 15.5079 12.9789 15.5729 13.298C15.6379 13.6172 15.7966 13.9098 16.0288 14.1382C16.1972 14.3077 16.2918 14.537 16.2918 14.7759C16.2918 15.0149 16.1972 15.2442 16.0288 15.4137L15.3865 16.0559C15.217 16.2244 14.9878 16.3189 14.7488 16.3189C14.5098 16.3189 14.2806 16.2244 14.1111 16.0559C13.8842 15.8254 13.5942 15.6672 13.2775 15.6013C12.9609 15.5355 12.6318 15.5649 12.3318 15.6858C12.0319 15.8068 11.7745 16.0139 11.5921 16.281C11.4097 16.5481 11.3105 16.8632 11.307 17.1866C11.307 17.4265 11.2117 17.6566 11.042 17.8262C10.8724 17.9959 10.6423 18.0912 10.4024 18.0912H9.49785C9.25794 18.0912 9.02787 17.9959 8.85823 17.8262C8.68859 17.6566 8.59329 17.4265 8.59329 17.1866C8.59516 16.8609 8.49983 16.542 8.31948 16.2707C8.13914 15.9995 7.88199 15.7882 7.58092 15.6639C7.27984 15.5396 6.94853 15.5079 6.62935 15.5729C6.31017 15.6379 6.01764 15.7966 5.78916 16.0288C5.61967 16.1972 5.39041 16.2918 5.15144 16.2918C4.91247 16.2918 4.68321 16.1972 4.51373 16.0288L3.87149 15.3775C3.70301 15.208 3.60845 14.9787 3.60845 14.7398C3.60845 14.5008 3.70301 14.2715 3.87149 14.1021C4.10051 13.8731 4.25649 13.5813 4.31968 13.2637C4.38287 12.9461 4.35045 12.6168 4.22651 12.3176C4.10257 12.0184 3.89268 11.7627 3.62339 11.5828C3.3541 11.4029 3.03751 11.3069 2.71365 11.307C2.47375 11.307 2.24367 11.2117 2.07403 11.042C1.9044 10.8724 1.80909 10.6423 1.80909 10.4024V9.49785C1.80909 9.25794 1.9044 9.02787 2.07403 8.85823C2.24367 8.68859 2.47375 8.59329 2.71365 8.59329C3.03938 8.59516 3.35826 8.49982 3.62951 8.31948C3.90076 8.13914 4.11206 7.88199 4.23637 7.58092C4.36069 7.27984 4.39237 6.94853 4.32737 6.62935C4.26237 6.31017 4.10365 6.01764 3.87149 5.78916C3.70575 5.62007 3.61291 5.39273 3.61291 5.15596C3.61291 4.91919 3.70575 4.69186 3.87149 4.52277L4.52277 3.87149C4.69225 3.70301 4.92151 3.60845 5.16049 3.60845C5.39946 3.60845 5.62872 3.70301 5.7982 3.87149C6.02718 4.10051 6.31893 4.25649 6.63656 4.31968C6.95418 4.38287 7.28342 4.35045 7.58262 4.22651C7.88182 4.10257 8.13754 3.89268 8.31744 3.62339C8.49734 3.3541 8.59334 3.03751 8.59329 2.71365C8.59329 2.47375 8.68859 2.24367 8.85823 2.07403C9.02787 1.9044 9.25794 1.80909 9.49785 1.80909H10.4024C10.6423 1.80909 10.8724 1.9044 11.042 2.07403C11.2117 2.24367 11.307 2.47375 11.307 2.71365C11.3051 3.03938 11.4004 3.35826 11.5808 3.62951C11.7611 3.90076 12.0183 4.11206 12.3193 4.23637C12.6204 4.36069 12.9517 4.39237 13.2709 4.32737C13.5901 4.26237 13.8826 4.10364 14.1111 3.87149C14.2806 3.70301 14.5098 3.60845 14.7488 3.60845C14.9878 3.60845 15.217 3.70301 15.3865 3.87149L16.0288 4.51373C16.1972 4.68321 16.2918 4.91247 16.2918 5.15144C16.2918 5.39041 16.1972 5.61967 16.0288 5.78916C15.7966 6.01764 15.6379 6.31017 15.5729 6.62935C15.5079 6.94853 15.5396 7.27984 15.6639 7.58092C15.7882 7.88199 15.9995 8.13914 16.2707 8.31948C16.542 8.49982 16.8609 8.59516 17.1866 8.59329C17.4265 8.59329 17.6566 8.68859 17.8262 8.85823C17.9959 9.02787 18.0912 9.25794 18.0912 9.49785V10.4295Z" fill="#757575"/>
</g>
</svg>
