<svg width="28" height="28" viewBox="0 0 28 28" fill="none" xmlns="http://www.w3.org/2000/svg">
<path fill-rule="evenodd" clip-rule="evenodd" d="M14 0C11.2311 0 8.52431 0.821085 6.22202 2.35942C3.91973 3.89776 2.12532 6.08427 1.06569 8.64243C0.00606603 11.2006 -0.271181 14.0155 0.269012 16.7313C0.809205 19.447 2.14258 21.9416 4.10051 23.8995C6.05844 25.8574 8.55301 27.1908 11.2687 27.731C13.9845 28.2712 16.7994 27.9939 19.3576 26.9343C21.9157 25.8747 24.1022 24.0803 25.6406 21.778C27.1789 19.4757 28 16.7689 28 14C28 10.287 26.525 6.72601 23.8995 4.1005C21.274 1.475 17.713 0 14 0ZM14 25.4545C11.7345 25.4545 9.51989 24.7827 7.6362 23.5241C5.75251 22.2655 4.28435 20.4765 3.41739 18.3835C2.55042 16.2904 2.32358 13.9873 2.76556 11.7653C3.20753 9.54336 4.29847 7.50236 5.90042 5.90041C7.50236 4.29847 9.54337 3.20753 11.7653 2.76555C13.9873 2.32357 16.2904 2.55041 18.3835 3.41738C20.4765 4.28435 22.2655 5.7525 23.5241 7.63619C24.7827 9.51988 25.4545 11.7345 25.4545 14C25.4545 17.0379 24.2477 19.9514 22.0996 22.0996C19.9514 24.2477 17.0379 25.4545 14 25.4545Z" fill="#757575"/>
<path fill-rule="evenodd" clip-rule="evenodd" d="M20.5418 12.7273H7.45816C7.14518 12.7533 6.85498 12.9013 6.6502 13.1394C6.44542 13.3776 6.34249 13.6866 6.36361 14C6.34249 14.3133 6.44542 14.6224 6.6502 14.8605C6.85498 15.0987 7.14518 15.2467 7.45816 15.2727H20.5418C20.8548 15.2467 21.145 15.0987 21.3497 14.8605C21.5545 14.6224 21.6575 14.3133 21.6363 14C21.6575 13.6866 21.5545 13.3776 21.3497 13.1394C21.145 12.9013 20.8548 12.7533 20.5418 12.7273Z" fill="#757575"/>
</svg>
